<svg preserveAspectRatio="none" width="100%" height="100%" overflow="visible" style="display: block;" viewBox="0 0 14.75 15.3755" fill="none" xmlns="http://www.w3.org/2000/svg">
<path id="Vector" d="M5.5 14.8755V9.87549H9.25V14.8755H14.25V7.37549C14.2501 7.29339 14.234 7.21208 14.2026 7.13621C14.1712 7.06034 14.1252 6.99139 14.0672 6.9333L7.81719 0.683304C7.75914 0.625194 7.69021 0.579095 7.61434 0.547642C7.53846 0.516189 7.45713 0.5 7.375 0.5C7.29287 0.5 7.21154 0.516189 7.13566 0.547642C7.05979 0.579095 6.99086 0.625194 6.93281 0.683304L0.682813 6.9333C0.624791 6.99139 0.578782 7.06034 0.547415 7.13621C0.516047 7.21208 0.499936 7.29339 0.5 7.37549V14.8755H5.5Z" stroke="var(--stroke-0, #06472C)" stroke-linecap="round" stroke-linejoin="round"/>
</svg>
