<svg preserveAspectRatio="none" width="100%" height="100%" overflow="visible" style="display: block;" viewBox="0 0 17.2457 16" fill="none" xmlns="http://www.w3.org/2000/svg">
<path id="Vector" d="M8.7838 14.1023C8.67912 14.1023 8.57365 14.1023 8.4713 14.1023L5.9674 15.5C4.99265 15.1721 4.08855 14.6632 3.30255 14L3.29318 11.1875C3.23771 11.1 3.18537 11.0117 3.13693 10.9211L0.647085 9.50313C0.450972 8.51116 0.450972 7.4904 0.647085 6.49844L3.13459 5.08438C3.18537 4.99453 3.23771 4.90547 3.29084 4.81797L3.30334 2.00547C4.08862 1.34035 4.99249 0.829567 5.9674 0.500001L8.4674 1.89766C8.57209 1.89766 8.67755 1.89766 8.7799 1.89766L11.2799 0.500001C12.2546 0.827881 13.1587 1.33679 13.9447 2L13.9541 4.8125C14.0096 4.9 14.0619 4.98828 14.1104 5.07891L16.5986 6.49609C16.7948 7.48806 16.7948 8.50882 16.5986 9.50078L14.1111 10.9148C14.0604 11.0047 14.008 11.0938 13.9549 11.1813L13.9424 13.9938C13.1576 14.659 12.2543 15.17 11.2799 15.5L8.7838 14.1023Z" stroke="var(--stroke-0, #141414)" stroke-linecap="round" stroke-linejoin="round"/>
</svg>
