<svg preserveAspectRatio="none" width="100%" height="100%" overflow="visible" style="display: block;" viewBox="0 0 20.5 20.5" fill="none" xmlns="http://www.w3.org/2000/svg">
<path id="Background" d="M19 10.25C19 11.3991 18.7737 12.5369 18.3339 13.5985C17.8942 14.6601 17.2497 15.6247 16.4372 16.4372C15.6247 17.2497 14.6601 17.8942 13.5985 18.3339C12.5369 18.7737 11.3991 19 10.25 19C9.10093 19 7.96312 18.7737 6.90152 18.3339C5.83992 17.8942 4.87533 17.2497 4.06281 16.4372C3.2503 15.6247 2.60578 14.6601 2.16605 13.5985C1.72632 12.5369 1.5 11.3991 1.5 10.25C1.5 9.10093 1.72633 7.96312 2.16606 6.90152C2.60578 5.83992 3.25031 4.87533 4.06282 4.06281C4.87533 3.2503 5.83993 2.60578 6.90152 2.16605C7.96312 1.72632 9.10094 1.5 10.25 1.5C11.3991 1.5 12.5369 1.72633 13.5985 2.16606C14.6601 2.60579 15.6247 3.25031 16.4372 4.06282C17.2497 4.87533 17.8942 5.83993 18.334 6.90152C18.7737 7.96312 19 9.10094 19 10.25L19 10.25Z" stroke="var(--stroke-0, #D8D8D8)" stroke-width="3" stroke-linecap="round" stroke-linejoin="round"/>
</svg>
