<svg preserveAspectRatio="none" width="100%" height="100%" overflow="visible" style="display: block;" viewBox="0 0 25 25" fill="none" xmlns="http://www.w3.org/2000/svg">
<path id="Background" d="M23 12.5C23 13.8789 22.7284 15.2443 22.2007 16.5182C21.6731 17.7921 20.8996 18.9496 19.9246 19.9246C18.9496 20.8996 17.7921 21.6731 16.5182 22.2007C15.2443 22.7284 13.8789 23 12.5 23C11.1211 23 9.75574 22.7284 8.48182 22.2007C7.2079 21.6731 6.05039 20.8996 5.07538 19.9246C4.10036 18.9496 3.32694 17.7921 2.79926 16.5182C2.27159 15.2443 2 13.8789 2 12.5C2 11.1211 2.27159 9.75574 2.79927 8.48182C3.32694 7.2079 4.10037 6.05039 5.07538 5.07538C6.0504 4.10036 7.20791 3.32694 8.48183 2.79926C9.75575 2.27159 11.1211 2 12.5 2C13.8789 2 15.2443 2.27159 16.5182 2.79927C17.7921 3.32694 18.9496 4.10037 19.9246 5.07538C20.8996 6.0504 21.6731 7.20791 22.2007 8.48183C22.7284 9.75575 23 11.1211 23 12.5L23 12.5Z" stroke="var(--stroke-0, #D8D8D8)" stroke-width="4" stroke-linecap="round" stroke-linejoin="round"/>
</svg>
