<svg preserveAspectRatio="none" width="100%" height="100%" overflow="visible" style="display: block;" viewBox="0 0 41.7143 41.7143" fill="none" xmlns="http://www.w3.org/2000/svg">
<path id="Background" d="M38.7143 20.8571C38.7143 23.2022 38.2524 25.5242 37.355 27.6908C36.4576 29.8573 35.1422 31.8259 33.484 33.4841C31.8259 35.1422 29.8573 36.4576 27.6908 37.355C25.5242 38.2524 23.2022 38.7143 20.8571 38.7143C18.5121 38.7143 16.19 38.2524 14.0235 37.355C11.857 36.4576 9.88842 35.1422 8.23023 33.484C6.57204 31.8259 5.2567 29.8573 4.35929 27.6908C3.46189 25.5242 3 23.2022 3 20.8571C3 18.5121 3.46189 16.19 4.3593 14.0235C5.2567 11.857 6.57205 9.88842 8.23024 8.23023C9.88843 6.57204 11.857 5.2567 14.0235 4.35929C16.19 3.46189 18.5121 3 20.8572 3C23.2022 3 25.5243 3.46189 27.6908 4.3593C29.8573 5.2567 31.8259 6.57205 33.4841 8.23024C35.1422 9.88843 36.4576 11.857 37.355 14.0235C38.2524 16.19 38.7143 18.5121 38.7143 20.8572L38.7143 20.8571Z" stroke="var(--stroke-0, #D8D8D8)" stroke-width="6" stroke-linecap="round" stroke-linejoin="round"/>
</svg>
